<mxfile host="app.diagrams.net" modified="2023-11-03T19:24:12.436Z" agent="Mozilla/5.0 (Windows NT 10.0; Win64; x64) AppleWebKit/537.36 (KHTML, like Gecko) Chrome/118.0.0.0 Safari/537.36 Edg/118.0.2088.76" version="22.0.8" etag="7j2GizBylxrSphfKisoT" type="github">
  <diagram name="Page-1" id="TThdwCq3SuJ_IdHVlLw1">
    <mxGraphModel>
      <root>
        <mxCell id="0" />
        <mxCell id="1" parent="0" />
      </root>
    </mxGraphModel>
  </diagram>
</mxfile>
